<?xml version="1.0" encoding="UTF-8" standalone="no"?>
<!-- Generator: Adobe Illustrator 18.0.0, SVG Export Plug-In . SVG Version: 6.00 Build 0)  -->

<svg
   xmlns:dc="http://purl.org/dc/elements/1.1/"
   xmlns:cc="http://creativecommons.org/ns#"
   xmlns:rdf="http://www.w3.org/1999/02/22-rdf-syntax-ns#"
   xmlns:svg="http://www.w3.org/2000/svg"
   xmlns="http://www.w3.org/2000/svg"
   xmlns:sodipodi="http://sodipodi.sourceforge.net/DTD/sodipodi-0.dtd"
   xmlns:inkscape="http://www.inkscape.org/namespaces/inkscape"
   version="1.1"
   id="Capa_1"
   x="0px"
   y="0px"
   viewBox="0 0 200.00001 200.00001"
   xml:space="preserve"
   inkscape:version="0.91 r13725"
   sodipodi:docname="cherries.svg"
   width="200"
   height="200"><metadata
     id="metadata59"><rdf:RDF><cc:Work
         rdf:about=""><dc:format>image/svg+xml</dc:format><dc:type
           rdf:resource="http://purl.org/dc/dcmitype/StillImage" /><dc:title /></cc:Work></rdf:RDF></metadata><defs
     id="defs57" /><sodipodi:namedview
     pagecolor="#ffffff"
     bordercolor="#666666"
     borderopacity="1"
     objecttolerance="10"
     gridtolerance="10"
     guidetolerance="10"
     inkscape:pageopacity="0"
     inkscape:pageshadow="2"
     inkscape:window-width="1440"
     inkscape:window-height="838"
     id="namedview55"
     showgrid="false"
     inkscape:zoom="3.2650002"
     inkscape:cx="53.292491"
     inkscape:cy="100"
     inkscape:window-x="-8"
     inkscape:window-y="32"
     inkscape:window-maximized="1"
     inkscape:current-layer="Capa_1" /><circle
     style="color:#000000;display:inline;overflow:visible;visibility:visible;opacity:1;fill:#ffffff;fill-opacity:1;fill-rule:nonzero;stroke:none;stroke-width:0.03543307;stroke-miterlimit:4;stroke-dasharray:none;stroke-opacity:1;marker:none;enable-background:accumulate"
     id="path4175"
     cx="100"
     cy="100.00001"
     r="100" /><g
     id="g4263"
     transform="matrix(3.9370947,0,0,3.9370947,-33.8276,-0.94672189)"><g
       transform="matrix(0.58050662,0,0,0.58050662,16.402346,5.0902309)"
       id="g3"><path
         inkscape:connector-curvature="0"
         id="path5"
         d="m 2.807,37.614 c 0,-7.738 5.367,-14 12,-14 l 2,0 c 6.633,0 12,6.262 12,14 0,7.18 -5.82,13 -13,13 -7.18,0 -13,-5.821 -13,-13 z"
         style="fill:#d13834" /><path
         inkscape:connector-curvature="0"
         id="path7"
         d="m 13.764,47.386 c -0.072,0 -0.146,-0.008 -0.219,-0.024 -3.556,-0.796 -6.448,-3.395 -7.548,-6.784 -0.17,-0.525 0.117,-1.089 0.643,-1.26 0.527,-0.169 1.09,0.117 1.26,0.643 0.869,2.678 3.257,4.817 6.082,5.449 0.539,0.121 0.878,0.655 0.758,1.194 -0.106,0.465 -0.518,0.782 -0.976,0.782 z"
         style="fill:#ed3f32" /><path
         inkscape:connector-curvature="0"
         id="path9"
         d="m 6.735,36.212 c -0.065,0 -0.132,-0.006 -0.199,-0.02 -0.541,-0.109 -0.892,-0.637 -0.783,-1.178 0.273,-1.354 0.77,-2.627 1.476,-3.785 0.288,-0.471 0.904,-0.619 1.375,-0.333 0.471,0.288 0.62,0.903 0.333,1.375 -0.584,0.958 -0.996,2.014 -1.222,3.139 -0.096,0.474 -0.514,0.802 -0.98,0.802 z"
         style="fill:#ed3f32" /><path
         inkscape:connector-curvature="0"
         id="path11"
         d="m 28.807,44.614 c 0,-7.738 5.367,-14 12,-14 l 2,0 c 6.633,0 12,6.262 12,14 0,7.18 -5.82,13 -13,13 -7.18,0 -13,-5.821 -13,-13 z"
         style="fill:#ed3f32" /><path
         inkscape:connector-curvature="0"
         id="path13"
         d="m 23.807,33.614 c -3.309,0 -6,-2.691 -6,-6 0,-0.552 0.448,-1 1,-1 0.552,0 1,0.448 1,1 0,2.206 1.794,4 4,4 0.552,0 1,0.448 1,1 0,0.552 -0.448,1 -1,1 z"
         style="fill:#ed3f32" /><path
         inkscape:connector-curvature="0"
         id="path15"
         d="m 47.807,40.614 c -3.309,0 -6,-2.691 -6,-6 0,-0.552 0.448,-1 1,-1 0.552,0 1,0.448 1,1 0,2.206 1.794,4 4,4 0.552,0 1,0.448 1,1 0,0.552 -0.448,1 -1,1 z"
         style="fill:#ed7161" /><path
         inkscape:connector-curvature="0"
         id="path17"
         d="m 45.806,36.614 c -0.164,0 -0.331,-0.041 -0.485,-0.126 -0.482,-0.268 -0.657,-0.877 -0.388,-1.36 4.228,-7.61 3.538,-14.017 -2.958,-24.461 -1.583,11.013 -11.42,19.919 -19.596,19.919 -0.552,0 -1,-0.448 -1,-1 0,-0.552 0.448,-1 1,-1 7.853,0 17.816,-9.875 17.816,-20.972 0,-0.44 0.289,-0.83 0.71,-0.957 0.421,-0.128 0.877,0.036 1.122,0.402 7.181,10.772 10.245,18.977 4.654,29.041 -0.183,0.328 -0.524,0.514 -0.875,0.514 z"
         style="fill:#4c312c" /><path
         inkscape:connector-curvature="0"
         id="path19"
         d="M 40.807,7.092 C 44.819,10.033 50.955,8.472 53.896,4.46 49.884,1.518 43.748,3.08 40.807,7.092 Z"
         style="fill:#88c057" /><path
         inkscape:connector-curvature="0"
         id="path21"
         d="m 29.807,0.11 c 0.757,4.917 6.2,8.151 11.117,7.394 C 40.166,2.587 34.723,-0.647 29.807,0.11 Z"
         style="fill:#659c35" /><path
         inkscape:connector-curvature="0"
         id="path23"
         d="m 39.623,54.731 c -0.072,0 -0.146,-0.008 -0.219,-0.024 -3.556,-0.796 -6.448,-3.396 -7.548,-6.785 -0.17,-0.525 0.117,-1.089 0.643,-1.26 0.526,-0.171 1.09,0.117 1.26,0.643 0.869,2.678 3.257,4.817 6.082,5.45 0.539,0.121 0.878,0.656 0.758,1.194 -0.106,0.466 -0.519,0.782 -0.976,0.782 z"
         style="fill:#ed7161" /></g><g
       transform="matrix(0.58050662,0,0,0.58050662,13.872128,3.9061414)"
       id="g25" /><g
       transform="matrix(0.58050662,0,0,0.58050662,13.872128,3.9061414)"
       id="g27" /><g
       transform="matrix(0.58050662,0,0,0.58050662,13.872128,3.9061414)"
       id="g29" /><g
       transform="matrix(0.58050662,0,0,0.58050662,13.872128,3.9061414)"
       id="g31" /><g
       transform="matrix(0.58050662,0,0,0.58050662,13.872128,3.9061414)"
       id="g33" /><g
       transform="matrix(0.58050662,0,0,0.58050662,13.872128,3.9061414)"
       id="g35" /><g
       transform="matrix(0.58050662,0,0,0.58050662,13.872128,3.9061414)"
       id="g37" /><g
       transform="matrix(0.58050662,0,0,0.58050662,13.872128,3.9061414)"
       id="g39" /><g
       transform="matrix(0.58050662,0,0,0.58050662,13.872128,3.9061414)"
       id="g41" /><g
       transform="matrix(0.58050662,0,0,0.58050662,13.872128,3.9061414)"
       id="g43" /><g
       transform="matrix(0.58050662,0,0,0.58050662,13.872128,3.9061414)"
       id="g45" /><g
       transform="matrix(0.58050662,0,0,0.58050662,13.872128,3.9061414)"
       id="g47" /><g
       transform="matrix(0.58050662,0,0,0.58050662,13.872128,3.9061414)"
       id="g49" /><g
       transform="matrix(0.58050662,0,0,0.58050662,13.872128,3.9061414)"
       id="g51" /><g
       transform="matrix(0.58050662,0,0,0.58050662,13.872128,3.9061414)"
       id="g53" /><g
       id="text4187"
       style="font-style:normal;font-weight:normal;font-size:6.75884724px;line-height:125%;font-family:sans-serif;letter-spacing:0px;word-spacing:0px;fill:#ff0000;fill-opacity:1;stroke:none;stroke-width:1px;stroke-linecap:butt;stroke-linejoin:miter;stroke-opacity:1"><path
         id="path4235"
         style="font-style:normal;font-variant:normal;font-weight:bold;font-stretch:normal;font-family:'Script MT Bold';-inkscape-font-specification:'Script MT Bold, Bold';fill:#ff0000;fill-opacity:1"
         d="m 12.792015,30.834835 -0.182703,-1.247374 3.255581,-0.476845 -2.244704,-0.591797 -0.126744,-0.865325 1.980694,-1.210691 -3.255581,0.476844 -0.173137,-1.182066 4.862147,-0.712158 0.213313,1.456358 -2.279014,1.451176 2.598982,0.733362 0.213313,1.456358 -4.862147,0.712158 z"
         inkscape:connector-curvature="0" /><path
         id="path4237"
         style="font-style:normal;font-variant:normal;font-weight:bold;font-stretch:normal;font-family:'Script MT Bold';-inkscape-font-specification:'Script MT Bold, Bold';fill:#ff0000;fill-opacity:1"
         d="m 14.977106,33.662949 0.712432,-0.298015 q -0.111238,-0.214613 -0.252981,-0.459393 -0.138699,-0.246053 -0.23736,-0.362185 -0.120531,-0.142757 -0.257935,-0.189022 -0.133087,-0.04449 -0.29445,0.023 -0.10656,0.04458 -0.165899,0.09086 -0.05934,0.04629 -0.08967,0.144828 -0.0316,0.0955 -0.02129,0.205659 0.01335,0.108888 0.09995,0.31592 0.06877,0.164407 0.2058,0.303841 0.1383,0.142478 0.301395,0.224502 z m -0.529757,0.2216 q -0.103914,-0.06027 -0.25306,-0.151711 -0.149145,-0.09144 -0.252343,-0.184206 -0.140569,-0.130797 -0.246653,-0.290329 -0.109128,-0.158258 -0.19573,-0.36529 -0.203771,-0.487133 -0.0399,-0.942031 0.163868,-0.454897 0.632734,-0.651026 0.374483,-0.156649 0.682006,-0.08854 0.307524,0.06811 0.57316,0.318306 0.264363,0.247148 0.510698,0.673548 0.246334,0.4264 0.476232,0.899026 l 0.01827,-0.0076 Q 16.635905,32.976218 16.645674,32.700255 16.658488,32.423019 16.47,31.972421 16.356653,31.701453 16.130596,31.434705 15.907584,31.166682 15.79979,31.054371 L 15.75776,30.9539 16.582841,30.608764 q 0.118262,0.154438 0.34217,0.518673 0.228226,0.366006 0.392516,0.758757 0.390985,0.934686 0.274955,1.469738 -0.111712,0.536822 -0.726718,0.794083 l -2.326059,0.973004 -0.454663,-1.086916 0.362305,-0.151554 z"
         inkscape:connector-curvature="0" /><path
         id="path4239"
         style="font-style:normal;font-variant:normal;font-weight:bold;font-stretch:normal;font-family:'Script MT Bold';-inkscape-font-specification:'Script MT Bold, Bold';fill:#ff0000;fill-opacity:1"
         d="m 19.151001,36.99156 -0.99404,-1.510837 -2.406862,1.583572 -0.653019,-0.99252 3.096112,-2.037058 1.64706,2.503357 -0.689251,0.453486 z"
         inkscape:connector-curvature="0" /><path
         id="path4241"
         style="font-style:normal;font-variant:normal;font-weight:bold;font-stretch:normal;font-family:'Script MT Bold';-inkscape-font-specification:'Script MT Bold, Bold';fill:#ff0000;fill-opacity:1"
         d="m 19.378723,39.988207 0.556326,-0.535605 q -0.181356,-0.159822 -0.402065,-0.336728 -0.218332,-0.179195 -0.352329,-0.251758 -0.164018,-0.08947 -0.308853,-0.08288 -0.140168,0.0067 -0.266174,0.127988 -0.08321,0.08011 -0.121781,0.144733 -0.03857,0.06462 -0.03119,0.167458 0.0051,0.10046 0.05457,0.199428 0.05185,0.09668 0.207494,0.258346 0.123601,0.128383 0.301795,0.208788 0.180484,0.08278 0.362207,0.100234 z m -0.413679,0.398271 q -0.118682,-0.01859 -0.290807,-0.04986 -0.172124,-0.03128 -0.301897,-0.08042 -0.178372,-0.07107 -0.334992,-0.181409 -0.158997,-0.108048 -0.314643,-0.269716 -0.366226,-0.380393 -0.37806,-0.863762 -0.01183,-0.483368 0.354295,-0.83586 0.292428,-0.281536 0.60376,-0.329311 0.311332,-0.04778 0.649498,0.08935 0.335877,0.134745 0.719808,0.44312 0.383931,0.308375 0.769265,0.665791 l 0.01426,-0.01373 q 0.221104,-0.212869 0.130357,-0.473668 -0.08837,-0.263088 -0.427127,-0.614952 -0.203713,-0.211594 -0.510972,-0.378473 -0.304882,-0.169167 -0.446011,-0.234864 l -0.07553,-0.07846 0.644292,-0.620295 q 0.16613,0.101181 0.50666,0.359718 0.345197,0.258626 0.640466,0.565318 0.702696,0.729881 0.788129,1.270662 0.0901,0.54087 -0.390147,1.00323 l -1.816381,1.748729 -0.817142,-0.848754 0.282918,-0.27238 z"
         inkscape:connector-curvature="0" /><path
         id="path4243"
         style="font-style:normal;font-variant:normal;font-weight:bold;font-stretch:normal;font-family:'Script MT Bold';-inkscape-font-specification:'Script MT Bold, Bold';fill:#ff0000;fill-opacity:1"
         d="m 23.502158,43.126212 q -0.181831,0.259448 -0.439543,0.356904 -0.255818,0.09475 -0.549681,0.05403 -0.296566,-0.04261 -0.596321,-0.184183 -0.299754,-0.141569 -0.602443,-0.353705 -0.397279,-0.278429 -0.658022,-0.561917 -0.258039,-0.281595 -0.479837,-0.58615 l 0.517081,-0.737804 0.108103,0.07576 q 0.130165,0.268545 0.332513,0.543349 0.204243,0.272102 0.479906,0.465297 0.102698,0.07198 0.252703,0.156953 0.152707,0.08687 0.259215,0.113159 0.143814,0.03631 0.240344,0.01933 0.09923,-0.01508 0.186359,-0.139404 0.08145,-0.116211 0.07285,-0.218954 -0.0059,-0.100849 -0.07694,-0.194976 -0.05943,-0.08195 -0.175368,-0.175295 -0.113231,-0.09145 -0.297007,-0.220243 l -0.464843,-0.325781 0.431848,-0.616188 0.372956,0.261382 q 0.108103,0.07576 0.258639,0.177234 0.153239,0.103366 0.254874,0.142355 0.147856,0.05929 0.247365,0.03231 0.102212,-0.02509 0.174187,-0.127785 0.05872,-0.08378 0.04174,-0.180309 -0.01698,-0.09653 -0.08614,-0.193359 -0.05943,-0.08195 -0.155365,-0.169336 -0.09593,-0.08738 -0.212141,-0.168827 -0.191883,-0.134479 -0.49598,-0.246851 -0.301394,-0.110478 -0.568763,-0.14875 l -0.105401,-0.07387 0.509506,-0.726994 q 0.203547,0.06608 0.580613,0.229596 0.379769,0.165406 0.7257,0.407847 0.302688,0.212136 0.519127,0.432335 0.216438,0.220198 0.343922,0.446565 0.132613,0.242051 0.145182,0.48863 0.01257,0.24658 -0.15411,0.484407 -0.170467,0.243232 -0.472506,0.317682 -0.299336,0.07634 -0.577216,-0.02168 l -0.01705,0.02432 q 0.218309,0.25778 0.273565,0.558457 0.05715,0.297974 -0.143622,0.584447 z"
         inkscape:connector-curvature="0" /><path
         id="path4245"
         style="font-style:normal;font-variant:normal;font-weight:bold;font-stretch:normal;font-family:'Script MT Bold';-inkscape-font-specification:'Script MT Bold, Bold';fill:#ff0000;fill-opacity:1"
         d="m 27.091039,45.91954 -1.056883,-0.457807 0.901184,-2.080454 -2.379003,1.440312 -0.902439,-0.390907 1.473114,-3.400801 1.056883,0.457807 -0.806737,1.862415 2.175537,-1.269497 1.011458,0.438131 -1.473114,3.400801 z"
         inkscape:connector-curvature="0" /><path
         id="path4247"
         style="font-style:normal;font-variant:normal;font-weight:bold;font-stretch:normal;font-family:'Script MT Bold';-inkscape-font-specification:'Script MT Bold, Bold';fill:#ff0000;fill-opacity:1"
         d="m 31.858679,46.939997 -1.167866,-0.218219 0.290353,-1.553911 -1.343046,-0.250952 -0.290353,1.553911 -1.167866,-0.218219 0.680722,-3.643093 1.167866,0.218219 -0.234585,1.255456 1.343046,0.250952 0.234585,-1.255456 1.167866,0.218219 -0.680722,3.643093 z"
         inkscape:connector-curvature="0" /><path
         id="path4249"
         style="font-style:normal;font-variant:normal;font-weight:bold;font-stretch:normal;font-family:'Script MT Bold';-inkscape-font-specification:'Script MT Bold, Bold';fill:#ff0000;fill-opacity:1"
         d="m 40.561688,44.181482 q 0.08553,0.470825 0.03264,0.862817 -0.05348,0.388745 -0.232112,0.679471 -0.181285,0.294564 -0.444612,0.469862 -0.26067,0.171461 -0.621095,0.236938 -0.26626,0.04837 -0.453399,0.01528 -0.18714,-0.03309 -0.300484,-0.06617 l 0.267215,1.470924 -1.155958,0.209997 -0.267805,-1.474171 q -0.118973,0.102115 -0.297275,0.191528 -0.178893,0.08617 -0.451647,0.135716 -0.733838,0.133313 -1.235288,-0.282081 -0.50145,-0.415393 -0.658948,-1.282361 -0.08435,-0.464332 -0.02467,-0.837431 0.06234,-0.376936 0.237719,-0.667073 0.170656,-0.279215 0.443134,-0.45953 0.272478,-0.180315 0.600433,-0.239893 0.26626,-0.04837 0.45281,-0.01853 0.189796,0.02925 0.319078,0.0762 l -0.278423,-1.532619 1.155958,-0.209997 0.277833,1.529372 q 0.12399,-0.09296 0.327679,-0.190343 0.206346,-0.101217 0.456371,-0.146637 0.730591,-0.132723 1.212267,0.266137 0.481085,0.395613 0.638583,1.262582 z m -1.173974,0.277 q -0.0991,-0.545508 -0.35499,-0.753943 -0.253234,-0.212273 -0.698083,-0.131459 -0.08118,0.01475 -0.148185,0.03363 -0.06376,0.01829 -0.138742,0.04868 l 0.373983,2.058644 q 0.07055,6.01e-4 0.139917,-0.0053 0.06937,-0.0059 0.150545,-0.02064 0.444849,-0.08081 0.608128,-0.382169 0.166527,-0.301944 0.06743,-0.847453 z m -2.121975,1.465552 -0.374573,-2.061891 q -0.05048,-8.93e-4 -0.129585,0.0068 -0.07645,0.0038 -0.167371,0.02034 -0.444849,0.08081 -0.608128,0.382169 -0.160033,0.300765 -0.06093,0.846273 0.0991,0.545508 0.35558,0.757191 0.259138,0.207845 0.703987,0.127032 0.06494,-0.0118 0.144938,-0.03304 0.08324,-0.02183 0.136085,-0.04485 z"
         inkscape:connector-curvature="0" /><path
         id="path4251"
         style="font-style:normal;font-variant:normal;font-weight:bold;font-stretch:normal;font-family:'Script MT Bold';-inkscape-font-specification:'Script MT Bold, Bold';fill:#ff0000;fill-opacity:1"
         d="m 44.40273,42.308568 q 0.194766,0.415331 0.226019,0.816213 0.03424,0.399482 -0.06824,0.717275 -0.105842,0.33395 -0.321702,0.580978 -0.215859,0.247029 -0.52661,0.392753 -0.286847,0.134515 -0.516468,0.165647 -0.228219,0.03412 -0.489223,0.02165 l 0.65576,1.39838 -1.075677,0.50443 -2.150836,-4.586566 1.075677,-0.504431 0.16394,0.349595 q 0.155525,-0.313507 0.355043,-0.556517 0.202506,-0.244412 0.540149,-0.402747 0.627478,-0.294251 1.189869,0.0034 0.565379,0.296211 0.942301,1.09998 z m -1.098736,0.54076 q -0.229796,-0.490031 -0.500812,-0.632675 -0.271016,-0.142645 -0.632563,0.0269 -0.152388,0.07146 -0.29132,0.194934 -0.140334,0.120484 -0.246111,0.275794 l 0.791676,1.688215 q 0.127184,-0.0086 0.255297,-0.05411 0.128112,-0.0455 0.247632,-0.101545 0.427283,-0.200371 0.520143,-0.546458 0.09146,-0.349075 -0.143942,-0.851057 z"
         inkscape:connector-curvature="0" /><path
         id="path4253"
         style="font-style:normal;font-variant:normal;font-weight:bold;font-stretch:normal;font-family:'Script MT Bold';-inkscape-font-specification:'Script MT Bold, Bold';fill:#ff0000;fill-opacity:1"
         d="m 46.477638,41.49015 -0.770358,-2.420939 0.974237,-0.736139 1.410945,5.283255 -1.026898,0.77593 -0.36693,-1.460033 -3.369019,-2.066436 0.995302,-0.752055 2.152721,1.376417 z"
         inkscape:connector-curvature="0" /><path
         id="path4255"
         style="font-style:normal;font-variant:normal;font-weight:bold;font-stretch:normal;font-family:'Script MT Bold';-inkscape-font-specification:'Script MT Bold, Bold';fill:#ff0000;fill-opacity:1"
         d="m 51.973938,37.849282 -0.90579,1.031685 -1.758997,-0.22245 -0.250399,0.285201 1.103606,0.968934 -0.783857,0.892804 -2.785053,-2.445197 0.783856,-0.892804 1.118486,0.981998 q 0.215258,-0.250179 0.248398,-0.387967 0.03066,-0.139965 -0.07871,-0.455575 -0.03182,-0.09381 -0.08778,-0.235165 -0.05596,-0.141353 -0.08439,-0.219015 -0.123286,-0.349784 -0.0809,-0.633162 0.04209,-0.288035 0.327323,-0.612917 0.08274,-0.09424 0.17667,-0.196223 0.09611,-0.104463 0.128768,-0.141663 l 0.744004,0.653213 -0.213384,0.243042 q -0.130642,0.1488 -0.134628,0.303402 -0.0018,0.152122 0.0879,0.345068 0.07362,0.161252 0.106346,0.269036 0.03025,0.105607 0.01888,0.218595 l 2.319641,0.24916 z"
         inkscape:connector-curvature="0" /><path
         id="path4257"
         style="font-style:normal;font-variant:normal;font-weight:bold;font-stretch:normal;font-family:'Script MT Bold';-inkscape-font-specification:'Script MT Bold, Bold';fill:#ff0000;fill-opacity:1"
         d="m 51.306894,33.218237 -0.601936,1.016643 2.496172,1.477938 -0.605299,1.022323 -2.496172,-1.477938 -0.601936,1.016643 -0.692908,-0.410258 1.809171,-3.055609 0.692908,0.410258 z"
         inkscape:connector-curvature="0" /><path
         id="path4259"
         style="font-style:normal;font-variant:normal;font-weight:bold;font-stretch:normal;font-family:'Script MT Bold';-inkscape-font-specification:'Script MT Bold, Bold';fill:#ff0000;fill-opacity:1"
         d="m 53.597919,29.958065 q 0.860339,0.309042 1.176547,0.990708 0.314217,0.677444 -0.01156,1.584372 -0.325777,0.906927 -1.000356,1.232693 -0.67657,0.321545 -1.536909,0.0125 -0.866551,-0.311273 -1.179652,-0.991824 -0.311986,-0.683656 0.01156,-1.584372 0.328008,-0.913139 1.003463,-1.231578 0.67657,-0.321545 1.536908,-0.0125 z m 0.353672,1.6805 q -0.09451,-0.156681 -0.261894,-0.276422 -0.169379,-0.123963 -0.501712,-0.24334 -0.307486,-0.110452 -0.535664,-0.129295 -0.228179,-0.01884 -0.388117,0.03592 -0.163044,0.05365 -0.26605,0.174446 -0.103006,0.1208 -0.161021,0.282307 -0.05802,0.161508 -0.06028,0.30447 -0.0011,0.139856 0.08803,0.301633 0.08431,0.146007 0.273202,0.283991 0.190005,0.134878 0.509914,0.249792 0.285744,0.102642 0.515913,0.125708 0.227063,0.02195 0.391223,-0.0348 0.156832,-0.05588 0.261828,-0.172456 0.106112,-0.119684 0.169705,-0.296721 0.05467,-0.15219 0.05406,-0.306701 -0.0026,-0.158733 -0.08914,-0.298527 z"
         inkscape:connector-curvature="0" /><path
         id="path4261"
         style="font-style:normal;font-variant:normal;font-weight:bold;font-stretch:normal;font-family:'Script MT Bold';-inkscape-font-specification:'Script MT Bold, Bold';fill:#ff0000;fill-opacity:1"
         d="m 54.898368,25.898996 q 0.26496,0.03542 0.456609,0.170922 0.192086,0.132227 0.305857,0.327235 0.143631,0.245614 0.172545,0.502528 0.02608,0.253205 -0.0194,0.593401 l -0.299131,2.237442 -3.673461,-0.491116 0.286448,-2.14258 q 0.05379,-0.402347 0.105325,-0.588573 0.05153,-0.186226 0.177429,-0.355851 0.130477,-0.179002 0.316529,-0.250686 0.186489,-0.07495 0.42528,-0.04303 0.271503,0.0363 0.456591,0.220863 0.182255,0.180856 0.260901,0.414453 l 0.03598,0.0048 q 0.115907,-0.294155 0.372437,-0.469622 0.253695,-0.179176 0.62006,-0.130196 z m -1.643031,1.182092 q -0.202809,-0.02711 -0.304476,0.08582 -0.10123,0.109661 -0.137528,0.381163 l -0.08309,0.621512 0.73273,0.09796 0.08571,-0.641139 q 0.03193,-0.238791 -0.04588,-0.379047 -0.08064,-0.143964 -0.247467,-0.166268 z m 1.444801,0.02668 q -0.238791,-0.03193 -0.352021,0.09278 -0.116064,0.120996 -0.151487,0.385956 l -0.102334,0.765441 0.840676,0.112392 0.104958,-0.785067 q 0.03236,-0.242063 -0.05722,-0.393881 -0.09285,-0.152256 -0.282575,-0.177621 z"
         inkscape:connector-curvature="0" /></g><circle
       transform="scale(-1,1)"
       r="21.875"
       cy="25.09421"
       cx="-34.0625"
       id="path4213"
       style="color:#000000;clip-rule:nonzero;display:inline;overflow:visible;visibility:visible;opacity:1;isolation:auto;mix-blend-mode:normal;color-interpolation:sRGB;color-interpolation-filters:linearRGB;solid-color:#000000;solid-opacity:1;fill:none;fill-opacity:1;fill-rule:nonzero;stroke:none;stroke-width:0.03543307;stroke-linecap:butt;stroke-linejoin:miter;stroke-miterlimit:4;stroke-dasharray:none;stroke-dashoffset:0;stroke-opacity:1;color-rendering:auto;image-rendering:auto;shape-rendering:auto;text-rendering:auto;enable-background:accumulate" /></g></svg>